Coordinates
version=1
nRows=49
nColumns=12
inDegrees=yes

Units are S.I. units (second, meters, Newtons, ...)
Angles are in degrees

endheader
time	SC_y	SC_z	SC_x	AC_y	AC_z	AC_x	GH_y	GH_z	GH_yy	EL_x	PS_y
       0.0              -28.55          25.04          1.552          55.84           3.98          8.044          48.56         -10.51         -88.18          29.84          157.3
   0.02598              -28.55          25.04          1.556          55.84           3.98          8.045          48.54         -10.51         -88.18          29.85          157.3
   0.05195              -28.56          25.03          1.561          55.83          3.981          8.046          48.53          -10.5         -88.19          29.86          157.3
   0.07793              -28.56          25.03          1.566          55.83          3.982          8.048          48.51         -10.49         -88.19          29.87          157.3
    0.1039              -28.57          25.03          1.571          55.83          3.982          8.049          48.49         -10.49         -88.19          29.88          157.3
    0.1299              -28.57          25.03          1.577          55.83          3.983          8.051          48.47         -10.48          -88.2          29.88          157.3
    0.1559              -28.58          25.03          1.583          55.83          3.984          8.053          48.45         -10.47          -88.2           29.9          157.3
    0.1818              -28.58          25.02          1.589          55.83          3.985          8.055          48.42         -10.46          -88.2          29.91          157.3
    0.2078              -28.59          25.02          1.596          55.82          3.986          8.057           48.4         -10.45         -88.21          29.92          157.3
    0.2338               -28.6          25.02          1.604          55.82          3.987          8.059          48.37         -10.44         -88.21          29.93          157.3
    0.2598               -28.6          25.01          1.612          55.82          3.988          8.061          48.34         -10.43         -88.22          29.94          157.3
    0.2857              -28.61          25.01           1.62          55.82          3.989          8.063          48.31         -10.42         -88.22          29.96          157.3
    0.3117              -28.62          25.01           1.63          55.82          3.991          8.066          48.28          -10.4         -88.23          29.98          157.3
    0.3377              -28.63           25.0           1.64          55.81          3.992          8.069          48.24         -10.39         -88.23          29.99          157.3
    0.3637              -28.64           25.0           1.65          55.81          3.994          8.072           48.2         -10.37         -88.24          30.01          157.3
    0.3896              -28.65          24.99          1.662          55.81          3.995          8.075          48.16         -10.36         -88.25          30.03          157.3
    0.4156              -28.66          24.99          1.675           55.8          3.997          8.079          48.11         -10.34         -88.26          30.05          157.3
    0.4416              -28.67          24.98          1.689           55.8          3.999          8.083          48.06         -10.32         -88.26          30.08          157.3
    0.4676              -28.68          24.98          1.704           55.8          4.001          8.087          48.01          -10.3         -88.27           30.1          157.3
    0.4935               -28.7          24.97          1.721          55.79          4.004          8.092          47.95         -10.27         -88.28          30.13          157.3
    0.5195              -28.71          24.96          1.739          55.79          4.006          8.097          47.88         -10.25         -88.29          30.16          157.3
    0.5455              -28.73          24.96          1.759          55.78          4.009          8.103          47.81         -10.22         -88.31           30.2          157.3
    0.5715              -28.75          24.95          1.781          55.78          4.012          8.109          47.73         -10.19         -88.32          30.24          157.3
    0.5974              -28.77          24.94          1.806          55.77          4.016          8.116          47.64         -10.15         -88.34          30.28          157.3
    0.6234               -28.8          24.93          1.833          55.76           4.02          8.124          47.54         -10.11         -88.35          30.32          157.3
    0.6494              -28.82          24.91          1.864          55.75          4.024          8.133          47.43         -10.07         -88.37          30.38          157.3
    0.6754              -28.86           24.9          1.898          55.74          4.029          8.142          47.31         -10.02         -88.39          30.43          157.3
    0.7014              -28.89          24.88          1.936          55.73          4.034          8.153          47.17         -9.965         -88.42           30.5          157.3
    0.7273              -28.93          24.87           1.98          55.72          4.041          8.166          47.02         -9.903         -88.44          30.58          157.3
    0.7533              -28.97          24.85          2.029          55.71          4.048           8.18          46.84         -9.832         -88.47          30.66          157.2
    0.7793              -29.02          24.83          2.085          55.69          4.056          8.196          46.64         -9.752         -88.51          30.76          157.2
    0.8053              -29.08           24.8           2.15          55.68          4.065          8.214           46.4          -9.66         -88.55          30.87          157.2
    0.8312              -29.14          24.77          2.225          55.66          4.075          8.236          46.13         -9.553         -88.59          30.99          157.2
    0.8572              -29.22          24.74          2.311          55.63          4.088           8.26          45.82         -9.429         -88.64          31.14          157.2
    0.8832              -29.31          24.69          2.413          55.61          4.102          8.289          45.46         -9.284         -88.71          31.32          157.2
    0.9092              -29.42          24.65          2.532          55.57          4.119          8.323          45.02         -9.113         -88.78          31.52          157.2
    0.9351              -29.54          24.59          2.674          55.54          4.139          8.364          44.51          -8.91         -88.87          31.77          157.2
    0.9611              -29.69          24.52          2.845          55.49          4.164          8.412           43.9         -8.667         -88.97          32.06          157.1
    0.9871              -29.87          24.44          3.051          55.44          4.193          8.471          43.16         -8.373          -89.1          32.41          157.1
     1.013               -30.1          24.34          3.302          55.37          4.229          8.543          42.25         -8.013         -89.25          32.84          157.1
     1.039              -30.37          24.22          3.613          55.29          4.273          8.631          41.13         -7.569         -89.44          33.37          157.0
     1.065              -30.71          24.06          4.001          55.18          4.328          8.742          39.73         -7.015         -89.68          34.04          157.0
     1.091              -31.14          23.87          4.489          55.05          4.398          8.881          37.98         -6.318         -89.98          34.87          156.9
     1.117              -31.69          23.62          5.109          54.89          4.486          9.058          35.74         -5.431         -90.36          35.94          156.8
     1.143              -32.39           23.3          5.903          54.68          4.599          9.284          32.88         -4.297         -90.84           37.3          156.7
     1.169              -33.29           22.9          6.922           54.4          4.744          9.575          29.21         -2.841         -91.47          39.04          156.6
     1.195              -34.44          22.38          8.224          54.06          4.929          9.946          24.52        -0.9806         -92.26          41.27          156.4
     1.221              -35.89          21.73           9.86          53.62          5.162          10.41          18.62          1.358         -93.27          44.08          156.2
     1.247              -37.65          20.93          11.85          53.09          5.445          10.98          11.43          4.208         -94.49          47.49          155.9
